<?xml version="1.0" encoding="iso-8859-1"?>
<!-- Uploaded to: SVG Repo, www.svgrepo.com, Generator: SVG Repo Mixer Tools -->
<svg fill="#fff" version="1.1" id="Layer_1" xmlns="http://www.w3.org/2000/svg" xmlns:xlink="http://www.w3.org/1999/xlink" 
	 viewBox="0 0 512 512" xml:space="preserve">
<g>
	<g>
		<path d="M370.939,36.533l-1.109-7.758c-10.65,1.521-26.185,6.3-35.463,15.703c-9.279-9.403-24.813-14.181-35.463-15.703
			l-2.216,15.517c6.304,0.901,29.842,6.656,29.842,18.364h15.673c0-5.186,4.472-9.757,13.292-13.59
			c8.089-3.514,16.479-4.765,16.563-4.776L370.939,36.533z"/>
	</g>
</g>
<g>
	<g>
		<path d="M485.878,78.329l-1.109-7.758c-10.65,1.521-26.185,6.3-35.463,15.703c-9.279-9.403-24.813-14.181-35.463-15.703
			l-2.216,15.517c6.304,0.901,29.842,6.656,29.842,18.364h15.673c0-5.186,4.472-9.757,13.292-13.59
			c8.089-3.514,16.479-4.765,16.563-4.776L485.878,78.329z"/>
	</g>
</g>
<g>
	<g>
		<path d="M512,248.125H392.06l-17.626-34.151l33.167-71.861l-98.621-40.609l-80.039,17.151l-39.234,129.47H0v15.673h184.958
			l-7.916,26.122h-71.766l-47.021,78.367H31.347v15.674h449.306v-15.674h-26.572l-53.931-104.49H512V248.125z M436.44,368.288
			H76.536l37.615-62.694h74.52l52.591-173.55l66.247-14.196l79.012,32.534l-29.527,63.976L436.44,368.288z"/>
	</g>
</g>
<g>
	<g>
		<path d="M104.49,44.37c-36.01,0-65.306,29.297-65.306,65.306s29.296,65.306,65.306,65.306s65.306-29.297,65.306-65.306
			S140.5,44.37,104.49,44.37z M104.49,159.309c-27.367,0-49.633-22.266-49.633-49.633c0-27.367,22.266-49.633,49.633-49.633
			s49.633,22.266,49.633,49.633C154.122,137.043,131.857,159.309,104.49,159.309z"/>
	</g>
</g>
<g>
	<g>
		<rect x="224.653" y="284.694" width="47.02" height="15.673"/>
	</g>
</g>
<g>
	<g>
		<rect x="297.796" y="242.899" width="47.02" height="15.673"/>
	</g>
</g>
<g>
	<g>
		<rect x="329.143" y="326.49" width="47.02" height="15.673"/>
	</g>
</g>
<g>
	<g>
		<rect x="146.286" y="331.715" width="47.02" height="15.673"/>
	</g>
</g>
<g>
	<g>
		<rect x="256" y="169.756" width="47.02" height="15.673"/>
	</g>
</g>
<g>
	<g>
		<rect x="57.469" y="467.552" width="67.918" height="15.673"/>
	</g>
</g>
<g>
	<g>
		<rect x="141.061" y="467.552" width="20.898" height="15.673"/>
	</g>
</g>
<g>
	<g>
		<rect x="381.388" y="467.552" width="67.918" height="15.673"/>
	</g>
</g>
<g>
	<g>
		<rect x="464.98" y="467.552" width="20.898" height="15.673"/>
	</g>
</g>
<g>
	<g>
		<rect x="250.775" y="425.756" width="67.918" height="15.673"/>
	</g>
</g>
<g>
	<g>
		<rect x="214.204" y="425.756" width="20.898" height="15.673"/>
	</g>
</g>
</svg>