<svg width="189" height="162" viewBox="0 0 189 162" fill="none" xmlns="http://www.w3.org/2000/svg" style="width: 100%; height: 100%;">
<g clip-path="url(#clip0_35_3365)">
<path d="M89.865 135.39C68.31 137.532 61.241 139.849 59.988 146.546C59.397 149.703 63.002 152.967 65.802 154.539C77.753 161.249 110.067 163.839 134.443 157.138C137.594 156.272 141.233 154.726 141.8 151.507C142.447 147.839 139.693 143.751 136.276 142.271C132.026 140.431 125.036 136.891 112.522 136.392" stroke="#010101" stroke-width="1.5" stroke-linecap="round" stroke-linejoin="round"></path>
<path d="M187.646 70.427C188.037 66.8 189.01 61.385 186.344 58.566C183.433 55.488 177.844 55.133 173.718 56.885C169.592 58.637 167.292 61.899 165.128 65.407C166.707 62.953 167.076 60.32 167.298 57.518C167.59 53.832 165.919 49.414 161.776 48.518C160.007 48.136 158.133 48.494 156.427 49.05C151.294 50.724 147.118 54.14 143.989 58.037C140.86 61.934 137.69 67.199 135.692 70.953C155.124 70.953 165.187 70.425 187.646 70.425V70.427Z" fill="#E3E3FF" stroke="#010101" stroke-width="1.5" stroke-linecap="round" stroke-linejoin="round"></path>
<path d="M97.906 0.90895C38.923 5.14095 54.02 70.7799 65.367 93.2799C72.453 107.331 86.65 132.091 94.95 144.035C97.692 147.98 100.434 151.925 103.176 155.871C111.191 141.641 120.573 127.028 128.918 111.844C137.129 96.9059 144.418 81.1579 147.097 64.3229C148.855 53.2769 147.003 -2.61305 97.906 0.90895ZM128.421 54.3429C126.134 62.8559 119.067 69.8129 110.629 72.3659C102.191 74.9189 92.656 73.1529 85.438 68.0929C81.753 65.5089 78.595 62.0439 76.894 57.8769C75.561 54.6119 75.159 51.019 75.345 47.497C75.826 38.379 80.173 29.324 87.464 23.829C100.046 14.347 115.27 22.832 122.32 28.885C129.008 34.6269 130.707 45.8299 128.42 54.3429H128.421Z" fill="#5eecf2" stroke="#010101" stroke-width="1.5" stroke-linecap="round" stroke-linejoin="round"></path>
<path d="M68.212 123.159C64.055 118.956 59.178 114.031 55.021 109.829C50.547 105.306 45.875 100.651 39.919 98.434C33.963 96.217 26.332 97.163 22.618 102.331C19.008 107.354 20.23 114.43 22.918 120.004C19.122 114.439 12.961 109.733 6.26903 110.388C5.27503 110.485 4.27403 110.707 3.41603 111.218C1.47203 112.378 0.625029 114.849 0.766029 117.113C0.908029 119.377 1.86203 121.498 4.63703 123.025C29.3 123.025 38.52 123.16 68.213 123.16L68.212 123.159Z" fill="#E3E3FF" stroke="#010101" stroke-width="1.5" stroke-linecap="round" stroke-linejoin="round"></path>
</g>
<defs>
<clipPath id="clip0_35_3365">
<rect width="188.894" height="161.801" fill="white"></rect>
</clipPath>
</defs>
</svg>